<svg width="34" height="36" viewBox="0 0 34 36" fill="none" xmlns="http://www.w3.org/2000/svg">
<g clip-path="url(#clip0_279_391)">
<path d="M22.666 16.0966C25.0177 16.0966 26.9018 14.1425 26.9018 11.7216C26.9018 9.30079 25.0177 7.34662 22.666 7.34662C20.3143 7.34662 18.416 9.30079 18.416 11.7216C18.416 14.1425 20.3143 16.0966 22.666 16.0966ZM11.3327 16.0966C13.6843 16.0966 15.5685 14.1425 15.5685 11.7216C15.5685 9.30079 13.6843 7.34662 11.3327 7.34662C8.98102 7.34662 7.08268 9.30079 7.08268 11.7216C7.08268 14.1425 8.98102 16.0966 11.3327 16.0966ZM11.3327 19.0133C8.03185 19.0133 1.41602 20.7195 1.41602 24.1175V27.7633H21.2493V24.1175C21.2493 20.7195 14.6335 19.0133 11.3327 19.0133ZM22.666 19.0133C22.2552 19.0133 21.7877 19.0425 21.2918 19.0862C22.9352 20.3112 24.0827 21.9591 24.0827 24.1175V27.7633H32.5827V24.1175C32.5827 20.7195 25.9668 19.0133 22.666 19.0133Z" fill="white"/>
</g>
<defs>
<clipPath id="clip0_279_391">
<rect width="34" height="35" fill="white" transform="translate(0 0.0549316)"/>
</clipPath>
</defs>
</svg>
